PathFileType	4	(X/Y/Z)	c:/Users/goper/Files/vsCode/490R/osim_files/C15/C15_Slow_02.trc
DataRate	CameraRate	NumFrames	NumMarkers	Units                	OrigDataRate	OrigDataStartFrame	OrigNumFrames
250.00	250.00	6	36	mm	250.0	2323	3097
                Frame#	Time	LPSIS			LASIS			LTH1			LTH2			LTH3			LTH4			LLFE			LMFE			LSH1			LSH2			LSH3			LSH4			LLMAL			LMMAL			LCAL			LMTP5			LTOE			LMTP1			RPSIS			RASIS			RTH1			RTH2			RTH3			RTH4			RLFE			RMFE			RSH1			RSH2			RSH3			RSH4			RLMAL			RMMAL			RCAL			RMTP1			RTOE			RMTP5		
		X1	Y1	Z1	X2	Y2	Z2	X3	Y3	Z3	X4	Y4	Z4	X5	Y5	Z5	X6	Y6	Z6	X7	Y7	Z7	X8	Y8	Z8	X9	Y9	Z9	X10	Y10	Z10	X11	Y11	Z11	X12	Y12	Z12	X13	Y13	Z13	X14	Y14	Z14	X15	Y15	Z15	X16	Y16	Z16	X17	Y17	Z17	X18	Y18	Z18	X19	Y19	Z19	X20	Y20	Z20	X21	Y21	Z21	X22	Y22	Z22	X23	Y23	Z23	X24	Y24	Z24	X25	Y25	Z25	X26	Y26	Z26	X27	Y27	Z27	X28	Y28	Z28	X29	Y29	Z29	X30	Y30	Z30	X31	Y31	Z31	X32	Y32	Z32	X33	Y33	Z33	X34	Y34	Z34	X35	Y35	Z35	X36	Y36	Z36

2323	9.28800	-2396.47144	1013.57489	214.10764	-2567.11353	995.23700	271.46478	-2579.22021	608.78278	345.19809	-2595.39209	566.19556	330.30463	-2626.71387	631.58862	347.02338	-2642.37573	589.68353	338.07962	-2636.35449	503.25763	309.34152	-2649.62817	487.81952	188.19595	-2610.60815	382.84518	319.16650	-2622.87134	340.30762	322.98544	-2670.21167	398.73764	324.50708	-2675.46094	353.73880	327.98575	-2739.49829	96.79460	275.00620	-2757.19580	132.48918	188.81163	0.00000	0.00000	0.00000	-2870.41431	87.09142	298.41498	-2914.95947	139.59561	245.73395	-2892.02954	100.56688	185.71933	-2395.01099	1017.90704	94.01031	-2546.90991	991.19836	22.61771	-2440.54150	629.24646	-18.10773	-2434.64795	584.65674	-7.89394	-2499.02197	619.78662	-3.86747	-2485.38232	573.99658	0.88038	-2420.14526	488.32651	18.11436	-2401.06177	478.87872	134.75226	-2308.54224	411.16748	-0.80842	-2294.52783	369.78723	-3.52405	-2364.46729	382.66870	1.40056	-2342.62036	347.89215	-3.08848	-2224.76465	115.07227	65.73119	-2254.14233	132.57097	153.24518	-2153.04053	96.82898	107.89970	-2346.61816	46.22935	156.45805	-2382.16064	61.70882	106.92202	-2324.58228	40.32659	37.74181
2324	9.29200	-2400.52295	1013.44513	214.60646	-2571.36816	994.82263	271.76459	-2583.76416	608.47229	344.98056	-2600.06348	566.03607	330.19873	-2630.35767	631.19366	346.76315	-2646.85938	589.41351	337.70856	-2640.59790	502.90744	309.06805	-2653.68188	487.68863	187.87889	-2615.46899	384.00482	320.45944	-2626.42188	340.09952	322.68600	-2674.16260	398.20270	323.94138	-2679.05249	353.14307	327.49332	-2741.96216	96.58036	275.07202	-2758.57471	131.26341	187.99915	0.00000	0.00000	0.00000	-2871.72583	85.11475	297.10162	-2916.95630	136.94342	244.15018	-2892.66797	97.63084	184.34401	-2399.01465	1017.68201	94.58122	-2550.76904	990.68616	22.90719	-2443.81592	629.00110	-17.70876	-2436.91650	584.57654	-7.91429	-2502.25439	619.33350	-3.55678	-2488.70679	573.62305	1.14993	-2423.34839	487.96469	18.40160	-2404.41357	478.49591	135.00533	-2311.11499	411.55206	-0.57936	-2297.21167	370.18906	-3.42644	-2366.94971	382.56628	1.59692	-2345.01099	348.04526	-2.91489	-2225.44434	115.93034	65.65976	-2255.04663	133.28363	153.57436	-2153.55591	98.06171	107.85899	-2346.76270	46.27206	156.38445	-2382.30151	61.74227	106.78635	-2324.68799	40.35573	37.76724
2325	9.29600	-2405.08472	1013.01605	215.24545	-2575.75366	994.43134	272.10654	-2588.40698	608.47357	344.67627	-2604.48926	565.71942	329.85086	-2635.25000	630.82971	346.45325	-2651.32153	589.04718	337.35706	-2644.93848	502.56451	308.62076	-2657.74243	487.64420	187.47917	-2619.30078	383.92065	320.25369	-2629.80029	339.86453	322.33432	-2677.99365	397.61258	323.43008	-2682.57910	352.91489	327.78802	-2741.76831	95.02688	273.61075	-2759.34570	129.76154	187.16754	0.00000	0.00000	0.00000	-2872.87231	83.10531	295.85730	-2918.37134	133.92921	242.34923	-2893.31348	94.48959	183.03397	-2403.25879	1017.22095	94.79910	-2554.76733	990.24316	23.25018	-2444.91577	628.49414	-18.77725	-2440.28857	584.28088	-7.55641	-2505.61182	618.88763	-3.22940	-2492.02832	573.15839	1.45455	-2426.65967	487.61105	18.62213	-2408.04395	478.28696	134.81628	-2313.80615	411.89084	-0.42470	-2299.46045	370.75134	-3.16843	-2369.58276	382.54779	1.79016	-2347.28320	348.11353	-2.75427	-2226.06177	116.73460	65.59773	-2255.83032	133.94749	153.45586	-2154.11084	99.43649	107.76080	-2346.87280	46.30443	156.32480	-2382.40234	61.78517	106.68954	-2324.74731	40.34136	37.76161
2326	9.30000	-2409.38306	1012.90900	215.78665	-2580.20850	994.12323	272.45932	-2592.71167	608.00836	344.50223	-2608.91357	565.34229	329.48792	-2639.88086	630.48676	346.15393	-2655.98291	588.79541	336.97421	-2649.25952	502.23608	308.32971	-2661.78320	487.55252	187.21280	-2622.96582	383.83575	320.07568	-2633.00659	339.69644	321.98996	-2681.73999	396.97253	322.84683	-2685.89917	352.19769	327.15701	-2742.74927	94.23289	272.85513	-2760.09766	128.21635	186.36388	0.00000	0.00000	0.00000	-2874.03198	80.91194	294.80634	-2919.31177	130.85431	240.37494	-2894.12036	91.59587	182.30171	-2407.24414	1016.89471	95.31615	-2558.75122	989.73688	23.57385	-2449.93481	628.17444	-16.76312	-2443.73315	583.96722	-7.25502	-2509.01318	618.45508	-2.92813	-2495.43872	572.75653	1.70566	-2429.98560	487.23642	18.85215	-2411.49780	477.91095	135.11528	-2316.63110	412.27374	-0.19385	-2302.15991	371.24127	-2.86771	-2372.17090	382.47690	2.02762	-2349.61646	348.30533	-2.62403	-2226.82031	117.72695	65.52262	-2256.50317	134.62601	153.01128	-2154.64941	100.81458	107.66191	-2347.02832	46.35896	156.25790	-2382.45068	61.82863	106.59494	-2324.85156	40.33628	37.77628
2327	9.30400	-2413.77319	1012.66168	216.30009	-2584.57275	993.67712	272.78378	-2598.09351	607.78259	344.52988	-2613.65601	565.09503	329.17703	-2644.42676	630.07941	345.92807	-2660.59644	588.42865	336.53690	-2653.65820	501.95374	307.93900	-2665.78589	487.45148	186.85841	-2626.28638	383.63812	319.55048	-2636.14697	339.50793	321.67120	-2685.38940	396.30582	322.33350	-2689.20703	351.55139	326.65671	-2744.45361	94.03350	273.47476	-2759.33740	127.21946	184.31442	0.00000	0.00000	0.00000	-2875.09717	78.93403	293.76144	-2920.90479	127.97419	238.92906	-2894.91211	87.75742	180.30217	-2411.04346	1016.59857	95.80074	-2562.90845	989.29004	23.93214	-2451.89600	627.77344	-17.90563	-2447.18506	583.61835	-6.86382	-2512.51685	617.91205	-2.57149	-2498.92969	572.29071	1.94789	-2433.34668	486.80420	19.07862	-2415.05029	477.47534	135.32895	-2319.53711	412.69675	0.02130	-2304.51147	371.85623	-2.71347	-2374.86206	382.41116	2.18183	-2352.03784	348.38559	-2.46438	-2227.50952	118.64154	65.41529	-2257.52417	135.38254	153.26532	-2155.17114	102.24075	107.55363	-2347.13550	46.39976	156.19827	-2382.49829	61.85549	106.48187	-2324.89258	40.30682	37.76635
2328	9.30800	-2418.21313	1012.46698	216.87479	-2589.06299	993.29883	273.15402	-2602.69849	607.48096	344.43475	-2618.28418	564.72272	328.82532	-2649.29004	629.78351	345.67734	-2665.14404	588.07849	336.05463	-2658.11426	501.69952	307.54361	-2669.86206	487.33630	186.56154	-2628.84473	382.38559	317.89166	-2639.27539	339.41190	321.41861	-2689.03809	395.68472	321.86176	-2692.48364	350.92578	326.12073	-2745.32788	93.47832	273.07312	-2759.90503	125.56262	183.71809	0.00000	0.00000	0.00000	-2876.05957	76.97538	292.78278	-2921.91479	125.11005	237.19737	-2895.58594	84.58254	179.18115	-2415.14917	1016.36920	96.29785	-2567.06274	988.78003	24.26308	-2455.58887	627.41370	-17.49630	-2450.75610	583.27875	-6.53449	-2516.06128	617.46875	-2.24954	-2502.50586	571.86560	2.25202	-2436.82520	486.42508	19.29291	-2418.71411	476.86664	135.92516	-2322.52417	413.07626	0.24789	-2307.02173	372.30612	-2.52395	-2377.61011	382.38943	2.37008	-2354.30664	348.02283	-2.40754	-2228.34082	119.61374	65.25658	-2258.23364	136.01352	152.78789	-2155.89038	103.72006	107.43816	-2347.27734	46.45733	156.11783	-2382.60254	61.86542	106.37756	-2324.95679	40.31754	37.73255
